                                                                                                   
                                                                                                  
                                                                                                   
PPPPPPPPPPPPPPPPP   222222222222222   PPPPPPPPPPPPPPPPP  DDDDDDDDDDDDD     LLLLLLLLLLL             
P::::::::::::::::P 2::::::MAKE!::::22 P:::::::SAVE!::::P D::::SHARE!::DDD  L:::::::::L             
P::::::PPPPPP:::::P2::::::222222:::::2P::::::PPPPPP:::::PD:::::::::::::::DDL:::::::::L             
PP:::::P     P:::::2222222     2:::::2PP:::::P     P:::::DDD:::::DDDDD:::::LL:::::::LL             
  P::::P     P:::::P           2:::::2  P::::P     P:::::P D:::::D    D:::::DL:::::L               
  P::::P     P:::::P           2:::::2  P::::P     P:::::P D:::::D     D:::::L:::::L               
  P::::PPPPPP:::::P         2222::::2   P::::PPPPPP:::::P  D:::::D     D:::::L:::::L               
  P:::::::::::::PP     22222::::::22    P:::::::::::::PP   D:::::D     D:::::L:::::L               
  P::::PPPPPPPPP     22::::::::222      P::::PPPPPPPPP     D:::::D     D:::::L:::::L               
  P::::P            2:::::22222         P::::P             D:::::D     D:::::L:::::L               
  P::::P           2:::::2              P::::P             D:::::D     D:::::L:::::L               
  P::::P           2:::::2              P::::P             D:::::D    D:::::DL:::::L         LLLLLL
PP::::::PP         2:::::2       22222PP::::::PP         DDD:::::DDDDD:::::LL:::::::LLLLLLLLL:::::L
P::::::::P         2::::::2222222:::::P::::::::P         D:::::::::::::::DDL::::::::::::::::::::::L
P::::::::P         2:::::Vitamin_X::::P::VYTO::P         D::::ViZNU:::DDD  L::::::::::::::::::::::L
PPPPPPPPP PRiSTiNE 2222222222222222222PPPPPPPPP PRiSTiNE DDDDDDDDDDDDD     LLLLLLLLLLLLLLLLLLLLLLLL
                                                                                                   
                                                                                                   
                                                                                                   
_________________________  Visit us at _________________________
  
http://p2pdl.com  ____________________________  http://p2pdl.com


Stranded 2013 BRRip 480p x264 AAC - VYTO


Genre: Horror | Sci-Fi
Plot: Four isolated astronauts on board a bio-dome space craft, experience a ghostly intercession
after a meteor storm, leading to paranoia, fear and death.  
Director: Roger Christian
Stars: Christian Slater, Brendan Fehr, Amy Matysio.
Rated: N/a


Info: 
http://www.imdb.com/title/tt2268573/

Trailer:


Format                         : MPEG-4
File size                      : 301 MiB
Duration                       : 1h 27mn
Overall bit rate mode          : Variable
Overall bit rate               : 479 Kbps
Source                         : 720p.BluRay.x264-ROVERS

Video
Format                         : AVC
Bit rate                       : 437 Kbps
Width                          : 720 pixels
Height                         : 304 pixels
Display aspect ratio           : 2.35:1
Frame rate mode                : Constant
Frame rate                     : 23.976 fps
Stream size                    : 273 MiB (91%)
Writing library                : x264 core 130 r2273
Audio
Format                         : AAC
Bit rate mode                  : Variable
Bit rate                       : 40.0 Kbps
Channel(s)                     : 2 channels
Channel positions              : Front: L R
Sampling rate                  : 48.0 KHz
Stream size                    : 25.1 MiB (8%)
Language                       : English

Subtitle                       : Yes(English)
 
http://ultraimg.com/images/CtjLJ.png 
http://ultraimg.com/images/MNBw4.png 
http://ultraimg.com/images/18HlV.png 
http://ultraimg.com/images/9az0.png 
http://ultraimg.com/images/PKxSA.png 
http://ultraimg.com/images/mrO4.png 
http://ultraimg.com/images/1kDvh.png 
http://ultraimg.com/images/HhVWZ.png


----------------------------------------------------------------------------------------------------


Encoded using revolutionary 10bit encoding, which enables us to provide you more crispier 
and sharper images at small sizes, just make sure you follow our instructions without a fault.
Recommend to you to use latest version of VLC player. Install K-Lite Codec Pack or shark007 codecs
in case of any kind of problem in playback (For non-VLC Media Player users). Alternatively, install
Core AVC codecs, the fastest decoder that there is coupled with Community Center Codec Pack and play
on Windows Media Player Classic. Check sample to be sure.
Enjoy!

Encoder Notes:Looking For Early Access To Anything You Can Provide DVDScr, R5, DVDR, BluRay, Direct
Audio, Music Releases and Seedboxes. We require dedicated servers, so as to do more 
and fast releases of movies.
If You Got anything to offer please contact us at "contact@p2pdl.com".

Face book Fan Page:   
http://www.fb.me/p2pdl